<?xml version="1.0" encoding="UTF-8" standalone="no"?>
<svg
   xmlns:dc="http://purl.org/dc/elements/1.1/"
   xmlns:cc="http://creativecommons.org/ns#"
   xmlns:rdf="http://www.w3.org/1999/02/22-rdf-syntax-ns#"
   xmlns:svg="http://www.w3.org/2000/svg"
   xmlns="http://www.w3.org/2000/svg"
   id="svg5652"
   version="1.1"
   viewBox="0 0 158.00016 36.315056"
   height="36.315056mm"
   width="158.00015mm">
  <defs
     id="defs5646" />
  <metadata
     id="metadata5649">
    <rdf:RDF>
      <cc:Work
         rdf:about="">
        <dc:format>image/svg+xml</dc:format>
        <dc:type
           rdf:resource="http://purl.org/dc/dcmitype/StillImage" />
        <dc:title></dc:title>
      </cc:Work>
    </rdf:RDF>
  </metadata>
  <g
     transform="translate(-71.791008,-129.71682)"
     id="layer1">
    <g
       style="stroke-width:0.38945323"
       transform="matrix(2.5677024,0,0,2.5677024,94.500245,-141.11451)"
       id="g6299">
      <rect
         y="105.47614"
         x="-8.8441858"
         height="14.143015"
         width="61.533669"
         id="rect6380"
         style="opacity:1;vector-effect:none;fill:#ffffff;fill-opacity:1;stroke:none;stroke-width:0.06425978;stroke-linecap:butt;stroke-linejoin:miter;stroke-miterlimit:4;stroke-dasharray:none;stroke-dashoffset:0;stroke-opacity:1" />
      <path
         style="color:#000000;font-style:normal;font-variant:normal;font-weight:bold;font-stretch:normal;font-size:10.58333302px;line-height:6.61458349px;font-family:Cantarell;-inkscape-font-specification:'Cantarell, Bold';font-variant-ligatures:normal;font-variant-position:normal;font-variant-caps:normal;font-variant-numeric:normal;font-variant-alternates:normal;font-feature-settings:normal;text-indent:0;text-align:start;text-decoration:none;text-decoration-line:none;text-decoration-style:solid;text-decoration-color:#000000;letter-spacing:0px;word-spacing:0px;text-transform:none;writing-mode:lr-tb;direction:ltr;text-orientation:mixed;dominant-baseline:auto;baseline-shift:baseline;text-anchor:start;white-space:normal;shape-padding:0;clip-rule:nonzero;display:inline;overflow:visible;visibility:visible;opacity:1;isolation:auto;mix-blend-mode:normal;color-interpolation:sRGB;color-interpolation-filters:linearRGB;solid-color:#000000;solid-opacity:1;vector-effect:none;fill:#4d4d4d;fill-opacity:1;fill-rule:nonzero;stroke:none;stroke-width:1.20730519;stroke-linecap:butt;stroke-linejoin:miter;stroke-miterlimit:4;stroke-dasharray:none;stroke-dashoffset:0;stroke-opacity:1;color-rendering:auto;image-rendering:auto;shape-rendering:auto;text-rendering:auto;enable-background:accumulate"
         d="m -7.286373,108.16871 v 3.88477 c 0,0.9205 0.3917141,1.86455 1.039063,2.51758 l 0.0039,0.006 0.0059,0.004 c 0.539533,0.53484 1.285512,0.83443 2.0449222,0.94336 l -0.7128912,1.6875 h 3.2441411 l 3.066406,-3.03907 v -1.34375 l -3.066406,-3.03711 H -3.048057 v -1.62304 z"
         id="path5609" />
      <path
         id="path5587"
         transform="matrix(0.10304283,0,0,0.10304283,-7.2863728,107.03395)"
         d="m 182.32422,0 0,25.992953 -2.95701,-0.0066 h -22.08203 -16.07422 -16.07227 -10.97656 -4.05469 -28.091795 v 46.892578 c 0,8.840693 2.894955,17.65001 8.984375,24.091797 10.35314,9.431227 19.70392,9.532247 31.86328,9.021487 h 18.34766 16.07422 27.0664 V 91.666016 h 1.96485 c 0.87775,2.561578 2.13461,4.959893 4.1582,6.972656 5.62215,5.592048 13.49363,8.074218 20.86719,8.074218 5.12489,0 10.17686,-0.71041 15.6582,-3.14648 l 12.30078,-5.476566 -4.15039,-13.060547 h 21.30469 v 21.531253 h 15.04883 18.00781 c 3.89379,-0.0194 4.77453,0.0571 6.61328,-0.002 10.19172,0 19.89043,-3.83981 26.80273,-10.820309 7.35168,7.415359 17.81522,11.277339 28.60157,11.277339 11.32724,0 22.22929,-4.13147 29.85351,-11.882808 0.25553,-0.260086 0.34071,-0.644247 0.58789,-0.910156 0.9709,1.296063 1.49507,2.884154 2.69141,4 6.33006,5.904534 14.88974,8.490234 23.31445,8.490234 5.51655,0 10.40864,-1.0404 14.87891,-2.48242 l 13.83789,-4.453126 -4.20898,-14.748047 h 23.67382 V 105.9941 h 15.05078 28.08985 v -5.85742 l 4.11328,1.76172 c 8.03611,3.444 16.83431,5.11914 25.74023,5.11914 9.08916,0 17.77674,-1.87062 25.01954,-7.240236 7.24279,-5.369709 11.80859,-14.812833 11.80859,-23.826172 0,-6.213533 -2.71369,-11.941912 -6.16016,-16.642578 l 7.10938,-26.251953 -13.11719,-4.66211 c -6.72204,-2.390074 -13.88196,-3.43164 -21.17188,-3.43164 -6.51069,0 -12.22261,2.540074 -17.98828,4.910156 l -2.10351,-1.0625 c -4.70581,-2.352905 -9.574,-2.820313 -14.5586,-2.820313 -3.67616,-0.0041 -3.29591,-0.03865 -3.67578,-0.0039 H 456.1582 v 18.29105 H 430.72266 V 25.986328 H 418.17383 V 11.505859 h -43.02539 v 14.480469 l 0.0176,4.814453 -6.99219,-3.089843 c -4.73831,-1.743644 -9.81902,-2.748047 -14.99414,-2.748047 -11.05042,0 -21.63248,4.023472 -29.2461,11.449218 C 317.66095,29.7147 308.69644,25.731694 299.27344,25.304688 V 0 H 256.45508 V 44.277344 H 225.34961 V 0 Z"
         style="color:#000000;font-style:normal;font-variant:normal;font-weight:normal;font-stretch:normal;font-size:10.58333302px;line-height:6.61458349px;font-family:sans-serif;font-variant-ligatures:normal;font-variant-position:normal;font-variant-caps:normal;font-variant-numeric:normal;font-variant-alternates:normal;font-feature-settings:normal;text-indent:0;text-align:start;text-decoration:none;text-decoration-line:none;text-decoration-style:solid;text-decoration-color:#000000;letter-spacing:0px;word-spacing:0px;text-transform:none;writing-mode:lr-tb;direction:ltr;text-orientation:mixed;dominant-baseline:auto;baseline-shift:baseline;text-anchor:start;white-space:normal;shape-padding:0;clip-rule:nonzero;display:inline;overflow:visible;visibility:visible;opacity:1;isolation:auto;mix-blend-mode:normal;color-interpolation:sRGB;color-interpolation-filters:linearRGB;solid-color:#000000;solid-opacity:1;vector-effect:none;fill:#4d4d4d;fill-opacity:1;fill-rule:nonzero;stroke:none;stroke-width:11.71653748;stroke-linecap:butt;stroke-linejoin:miter;stroke-miterlimit:4;stroke-dasharray:none;stroke-dashoffset:0;stroke-opacity:1;color-rendering:auto;image-rendering:auto;shape-rendering:auto;text-rendering:auto;enable-background:accumulate" />
      <path
         d="M 4.058777,111.26193 H 2.714694 v 3.28083 c 0,1.18534 0.73025,1.94734 1.830916,1.94734 0.592667,0 1.17475,-0.22225 1.629834,-0.64559 l 0.232833,0.56092 H 7.37136 v -5.1435 H 6.027277 v 3.683 c -0.296333,0.23283 -0.635,0.37042 -1.005417,0.37042 -0.6985,0 -0.963083,-0.46567 -0.963083,-1.06892 z"
         style="font-style:normal;font-variant:normal;font-weight:bold;font-stretch:normal;font-size:10.58333302px;line-height:6.61458349px;font-family:Cantarell;-inkscape-font-specification:'Cantarell, Bold';font-variant-ligatures:normal;font-variant-caps:normal;font-variant-numeric:normal;font-feature-settings:normal;text-align:start;letter-spacing:0px;word-spacing:0px;writing-mode:lr-tb;text-anchor:start;fill:#ffffff;fill-opacity:1;stroke:none;stroke-width:0.10304283px;stroke-linecap:butt;stroke-linejoin:miter;stroke-opacity:1"
         id="path5589" />
      <path
         d="m 8.814994,116.40543 h 1.344083 v -3.39725 c 0.306917,-0.37042 0.740833,-0.58208 1.217083,-0.58208 0.243417,0 0.497417,0.0529 0.6985,0.14816 l 0.306917,-1.18533 c -0.232833,-0.11642 -0.518583,-0.17992 -0.79375,-0.17992 -0.613833,0 -1.185333,0.30692 -1.576917,0.81492 l -0.127,-0.762 H 8.814994 Z"
         style="font-style:normal;font-variant:normal;font-weight:bold;font-stretch:normal;font-size:10.58333302px;line-height:6.61458349px;font-family:Cantarell;-inkscape-font-specification:'Cantarell, Bold';font-variant-ligatures:normal;font-variant-caps:normal;font-variant-numeric:normal;font-feature-settings:normal;text-align:start;letter-spacing:0px;word-spacing:0px;writing-mode:lr-tb;text-anchor:start;fill:#ffffff;fill-opacity:1;stroke:none;stroke-width:0.10304283px;stroke-linecap:butt;stroke-linejoin:miter;stroke-opacity:1"
         id="path5591" />
      <path
         d="m 14.490306,116.47951 c 0.328083,0 0.6985,-0.0635 0.98425,-0.1905 l -0.28575,-0.89958 c -0.116417,0.0423 -0.232834,0.0635 -0.328084,0.0635 -0.306916,0 -0.47625,-0.21167 -0.47625,-0.5715 v -6.29708 h -1.3335 v 6.46641 c 0,0.889 0.53975,1.42875 1.439334,1.42875 z"
         style="font-style:normal;font-variant:normal;font-weight:bold;font-stretch:normal;font-size:10.58333302px;line-height:6.61458349px;font-family:Cantarell;-inkscape-font-specification:'Cantarell, Bold';font-variant-ligatures:normal;font-variant-caps:normal;font-variant-numeric:normal;font-feature-settings:normal;text-align:start;letter-spacing:0px;word-spacing:0px;writing-mode:lr-tb;text-anchor:start;fill:#ffffff;fill-opacity:1;stroke:none;stroke-width:0.10304283px;stroke-linecap:butt;stroke-linejoin:miter;stroke-opacity:1"
         id="path5593" />
      <path
         d="m 16.183805,114.24643 h 3.069168 v -1.10067 h -3.069168 z"
         style="font-style:normal;font-variant:normal;font-weight:bold;font-stretch:normal;font-size:10.58333302px;line-height:6.61458349px;font-family:Cantarell;-inkscape-font-specification:'Cantarell, Bold';font-variant-ligatures:normal;font-variant-caps:normal;font-variant-numeric:normal;font-feature-settings:normal;text-align:start;letter-spacing:0px;word-spacing:0px;writing-mode:lr-tb;text-anchor:start;fill:#ffffff;fill-opacity:1;stroke:none;stroke-width:0.10304283px;stroke-linecap:butt;stroke-linejoin:miter;stroke-opacity:1"
         id="path5595" />
      <path
         d="m 20.689989,116.40543 h 0.867833 l 0.22225,-0.47625 c 0.34925,0.381 0.836083,0.58208 1.449917,0.58208 1.449916,0 2.423583,-1.10066 2.423583,-2.7305 0,-1.57691 -0.92075,-2.62466 -2.264833,-2.62466 -0.560917,0 -1.026584,0.16933 -1.386417,0.48683 v -3.05858 h -1.312333 z m 2.264833,-4.10633 c 0.8255,0 1.3335,0.60325 1.3335,1.57691 0,0.92075 -0.455083,1.49225 -1.227667,1.49225 -0.4445,0 -0.814916,-0.17991 -1.058333,-0.508 v -2.14841 c 0.22225,-0.27517 0.560917,-0.41275 0.9525,-0.41275 z"
         style="font-style:normal;font-variant:normal;font-weight:bold;font-stretch:normal;font-size:10.58333302px;line-height:6.61458349px;font-family:Cantarell;-inkscape-font-specification:'Cantarell, Bold';font-variant-ligatures:normal;font-variant-caps:normal;font-variant-numeric:normal;font-feature-settings:normal;text-align:start;letter-spacing:0px;word-spacing:0px;writing-mode:lr-tb;text-anchor:start;fill:#ffffff;fill-opacity:1;stroke:none;stroke-width:0.10304283px;stroke-linecap:butt;stroke-linejoin:miter;stroke-opacity:1"
         id="path5597" />
      <path
         d="m 28.937215,116.51126 c 1.629834,0 2.719917,-1.11125 2.719917,-2.76225 0,-1.57691 -1.005417,-2.59291 -2.550583,-2.59291 -1.629834,0 -2.719917,1.10066 -2.719917,2.76225 0,1.56633 0.994833,2.59291 2.550583,2.59291 z m 0.116417,-1.143 c -0.79375,0 -1.30175,-0.61383 -1.30175,-1.56633 0,-0.93133 0.465667,-1.50283 1.227667,-1.50283 0.79375,0 1.312333,0.62441 1.312333,1.5875 0,0.91016 -0.47625,1.48166 -1.23825,1.48166 z"
         style="font-style:normal;font-variant:normal;font-weight:bold;font-stretch:normal;font-size:10.58333302px;line-height:6.61458349px;font-family:Cantarell;-inkscape-font-specification:'Cantarell, Bold';font-variant-ligatures:normal;font-variant-caps:normal;font-variant-numeric:normal;font-feature-settings:normal;text-align:start;letter-spacing:0px;word-spacing:0px;writing-mode:lr-tb;text-anchor:start;fill:#ffffff;fill-opacity:1;stroke:none;stroke-width:0.10304283px;stroke-linecap:butt;stroke-linejoin:miter;stroke-opacity:1"
         id="path5599" />
      <path
         d="m 34.751767,116.47951 c 0.34925,0 0.73025,-0.0741 1.058334,-0.17991 l -0.275167,-0.96309 c -0.148167,0.0635 -0.328083,0.0952 -0.486833,0.0952 -0.486834,0 -0.79375,-0.28575 -0.79375,-0.73025 v -2.36008 h 1.291166 v -1.0795 h -1.291166 v -1.49225 h -1.3335 v 1.49225 h -0.719667 v 1.0795 h 0.719667 v 2.44475 c 0,1.03717 0.687916,1.69333 1.830916,1.69333 z"
         style="font-style:normal;font-variant:normal;font-weight:bold;font-stretch:normal;font-size:10.58333302px;line-height:6.61458349px;font-family:Cantarell;-inkscape-font-specification:'Cantarell, Bold';font-variant-ligatures:normal;font-variant-caps:normal;font-variant-numeric:normal;font-feature-settings:normal;text-align:start;letter-spacing:0px;word-spacing:0px;writing-mode:lr-tb;text-anchor:start;fill:#ffffff;fill-opacity:1;stroke:none;stroke-width:0.10304283px;stroke-linecap:butt;stroke-linejoin:miter;stroke-opacity:1"
         id="path5601" />
      <path
         d="m 36.751025,114.24643 h 3.069164 v -1.10067 h -3.069164 z"
         style="font-style:normal;font-weight:normal;font-size:10.58333302px;line-height:6.61458349px;font-family:sans-serif;letter-spacing:0px;word-spacing:0px;fill:#0088aa;fill-opacity:1;stroke:none;stroke-width:0.10304283px;stroke-linecap:butt;stroke-linejoin:miter;stroke-opacity:1"
         id="path5603" />
      <path
         d="m 41.267791,116.40543 h 1.344083 v -3.39725 c 0.306917,-0.37042 0.740833,-0.58208 1.217083,-0.58208 0.243417,0 0.497417,0.0529 0.6985,0.14816 l 0.306917,-1.18533 c -0.232833,-0.11642 -0.518583,-0.17992 -0.79375,-0.17992 -0.613833,0 -1.185333,0.30692 -1.576917,0.81492 l -0.127,-0.762 h -1.068916 z"
         style="font-style:normal;font-weight:normal;font-size:10.58333302px;line-height:6.61458349px;font-family:sans-serif;letter-spacing:0px;word-spacing:0px;fill:#0088aa;fill-opacity:1;stroke:none;stroke-width:0.10304283px;stroke-linecap:butt;stroke-linejoin:miter;stroke-opacity:1"
         id="path5605" />
      <path
         d="m 47.239439,116.51126 c 1.418167,0 2.243667,-0.62441 2.243667,-1.651 0,-1.92616 -2.899833,-1.28058 -2.899833,-2.14841 0,-0.30692 0.359833,-0.49742 0.994833,-0.49742 0.423333,0 0.931333,0.0847 1.407583,0.22225 l 0.275167,-1.016 c -0.47625,-0.16933 -1.0795,-0.26458 -1.661583,-0.26458 -1.471084,0 -2.328334,0.59266 -2.328334,1.651 0,1.91558 2.868084,1.18533 2.868084,2.11666 0,0.32809 -0.338667,0.52917 -0.92075,0.52917 -0.497417,0 -1.185334,-0.13758 -1.725084,-0.34925 l -0.296336,1.00542 c 0.59267,0.254 1.344086,0.40216 2.042586,0.40216 z"
         style="font-style:normal;font-weight:normal;font-size:10.58333302px;line-height:6.61458349px;font-family:sans-serif;letter-spacing:0px;word-spacing:0px;fill:#0088aa;fill-opacity:1;stroke:none;stroke-width:0.10304283px;stroke-linecap:butt;stroke-linejoin:miter;stroke-opacity:1"
         id="path5607" />
      <path
         d="m -3.720554,112.93278 h 1.8241779 l -0.671794,-1.59164 h 0.2687183 l 2.15490695,2.13424 v 0.0517 l -2.15490695,2.13423 h -0.2687183 l 0.671794,-1.59163 H -3.720554 q -0.8319911,0 -1.42627,-0.58911 -0.589111,-0.59428 -0.589111,-1.42627 v -2.33578 h 1.1368809 v 2.33578 q 0,0.36173 0.2583831,0.62011 0.2583821,0.25839 0.620117,0.25839 z"
         style="font-style:normal;font-variant:normal;font-weight:bold;font-stretch:normal;font-size:10.58333302px;line-height:6.61458349px;font-family:Cantarell;-inkscape-font-specification:'Cantarell, Bold';font-variant-ligatures:normal;font-variant-caps:normal;font-variant-numeric:normal;font-feature-settings:normal;text-align:start;letter-spacing:0px;word-spacing:0px;writing-mode:lr-tb;text-anchor:start;fill:#0088aa;fill-opacity:1;stroke:none;stroke-width:0.10304283px;stroke-linecap:butt;stroke-linejoin:miter;stroke-opacity:1"
         id="path5611" />
      <path
         style="font-style:normal;font-variant:normal;font-weight:bold;font-stretch:normal;font-size:10.58333302px;line-height:6.61458349px;font-family:Cantarell;-inkscape-font-specification:'Cantarell, Bold';font-variant-ligatures:normal;font-variant-caps:normal;font-variant-numeric:normal;font-feature-settings:normal;text-align:start;letter-spacing:0px;word-spacing:0px;writing-mode:lr-tb;text-anchor:start;fill:#cccccc;fill-opacity:1;stroke:none;stroke-width:0.06425978;stroke-linecap:butt;stroke-linejoin:miter;stroke-miterlimit:4;stroke-dasharray:none;stroke-opacity:1"
         d="m 34.254107,110.2718 c -0.44256,0.1136 -0.8836,0.22743 -1.333254,0.34003 v 0.65009 h -0.719852 v 1.07952 h 0.719852 v 2.44482 c 0,1.03716 0.687898,1.69343 1.830898,1.69343 0.34925,0 0.73025,-0.0745 1.058331,-0.18035 l -0.274918,-0.96273 c -0.148166,0.0635 -0.328557,0.0951 -0.487307,0.0951 -0.486833,0 -0.79375,-0.28569 -0.79375,-0.73019 v -2.36006 h 1.291394 v -1.07952 h -1.291394 z m -4.18941,1.03715 c -0.995193,0.23677 -1.999284,0.46984 -3.011701,0.69815 -0.423646,0.47697 -0.666107,1.13085 -0.666107,1.91099 0,1.56633 0.994478,2.59312 2.550228,2.59312 1.629834,0 2.720248,-1.1111 2.720248,-2.7621 0,-1.22049 -0.604018,-2.10268 -1.592668,-2.44016 z m -1.085201,0.99012 c 0.79375,0 1.312576,0.62442 1.312576,1.5875 0,0.91017 -0.476684,1.48156 -1.238684,1.48156 -0.79375,0 -1.301728,-0.61381 -1.301728,-1.56631 0,-0.93134 0.465836,-1.50275 1.227836,-1.50275 z m -3.626139,0.0832 c -0.481848,0.10536 -0.962369,0.21241 -1.445389,0.31523 0.244395,0.27317 0.380338,0.67627 0.380338,1.17873 0,0.92075 -0.45525,1.4919 -1.227831,1.4919 -0.4445,0 -0.814919,-0.17989 -1.058336,-0.50797 v -1.76786 c -0.437522,0.0898 -0.875408,0.18203 -1.312063,0.26924 v 3.04374 h 0.867645 l 0.222213,-0.47594 c 0.34925,0.381 0.836205,0.58188 1.450041,0.58188 1.449914,0 2.423623,-1.10075 2.423623,-2.73059 0,-0.53432 -0.108164,-1.00572 -0.300241,-1.39836 z m -6.100402,1.25832 c -1.031454,0.19973 -2.053928,0.39044 -3.069063,0.57309 v 0.0326 h 3.069063 z m -4.868436,0.8909 c -0.448524,0.0768 -0.891103,0.14947 -1.33377,0.22221 v 0.29714 c 0,0.889 0.540121,1.42885 1.439706,1.42885 0.328084,0 0.69817,-0.0637 0.98392,-0.19068 l -0.285771,-0.89969 c -0.116417,0.0423 -0.232379,0.0636 -0.327629,0.0636 -0.306916,0 -0.476456,-0.21171 -0.476456,-0.57154 z m -4.225584,0.67438 c -0.452466,0.0668 -0.90143,0.13232 -1.344102,0.19379 v 1.00562 h 1.344102 z m -2.787425,0.38602 c -1.42077,0.18233 -2.788271,0.33812 -4.065386,0.4532 0.313761,0.28491 0.737698,0.44494 1.239718,0.44494 0.592667,0 1.174274,-0.22211 1.629357,-0.64544 l 0.233061,0.56069 h 0.96325 z"
         id="path5619" />
    </g>
  </g>
</svg>
